{
  "accessors": [
    {
      "bufferView": 0,
      "componentType": 5125,
      "count": 41193,
      "type": "SCALAR"
    },
    {
      "bufferView": 1,
      "componentType": 5126,
      "count": 12012,
      "max": [
        0.507093548774719,
        0.99999988079071,
        0.514185786247253
      ],
      "min": [
        -0.507093548774719,
        -1.0,
        -0.514185786247253
      ],
      "type": "VEC3"
    },
    {
      "bufferView": 2,
      "componentType": 5126,
      "count": 12012,
      "type": "VEC3"
    },
    {
      "bufferView": 3,
      "componentType": 5126,
      "count": 12012,
      "type": "VEC2"
    }
  ],
  "asset": {
    "generator": "Substance Painter 2019.2.3",
    "version": "2.0"
  },
  "bufferViews": [
    {
      "buffer": 0,
      "byteLength": 164772,
      "target": 34963
    },
    {
      "buffer": 0,
      "byteLength": 144144,
      "byteOffset": 164772,
      "target": 34962
    },
    {
      "buffer": 0,
      "byteLength": 144144,
      "byteOffset": 308916,
      "target": 34962
    },
    {
      "buffer": 0,
      "byteLength": 96096,
      "byteOffset": 453060,
      "target": 34962
    }
  ],
  "buffers": [
    {
      "byteLength": 549156,
      "uri": "Fridge01.bin"
    }
  ],
  "images": [
    {
      "uri": "DefaultMaterial_baseColor.png"
    },
    {
      "uri": "DefaultMaterial_occlusionRoughnessMetallic.png"
    },
    {
      "uri": "DefaultMaterial_normal.png"
    }
  ],
  "materials": [
    {
      "alphaMode": "OPAQUE",
      "name": "DefaultMaterial",
      "normalTexture": {
        "index": 2
      },
      "occlusionTexture": {
        "index": 1
      },
      "pbrMetallicRoughness": {
        "baseColorTexture": {
          "index": 0
        },
        "metallicRoughnessTexture": {
          "index": 1
        }
      }
    }
  ],
  "meshes": [
    {
      "name": "Refrigerator",
      "primitives": [
        {
          "attributes": {
            "NORMAL": 2,
            "POSITION": 1,
            "TEXCOORD_0": 3
          },
          "indices": 0,
          "material": 0,
          "mode": 4
        }
      ]
    }
  ],
  "nodes": [
    {
      "children": [
        1
      ],
      "name": "root",
      "scale": [
        89.5440521240234,
        89.5440521240234,
        89.5440521240234
      ],
      "translation": [
        0.0,
        93.7894821166992,
        0.0
      ]
    },
    {
      "children": [
        2
      ],
      "name": "Refrigerator"
    },
    {
      "mesh": 0,
      "name": "Refrigerator"
    }
  ],
  "samplers": [
    {
      "magFilter": 9729,
      "minFilter": 9985,
      "wrapS": 10497,
      "wrapT": 10497
    }
  ],
  "scene": 0,
  "scenes": [
    {
      "name": "Scene",
      "nodes": [
        0
      ]
    }
  ],
  "textures": [
    {
      "sampler": 0,
      "source": 0
    },
    {
      "sampler": 0,
      "source": 1
    },
    {
      "sampler": 0,
      "source": 2
    }
  ]
}